<?xml version="1.0" encoding="UTF-8"?>
<svg version="1.1" xmlns="http://www.w3.org/2000/svg" width="863" height="370">
<path d="M0 0 C284.79 0 569.58 0 863 0 C863 122.1 863 244.2 863 370 C578.21 370 293.42 370 0 370 C0 247.9 0 125.8 0 0 Z " fill="#F9F9F7" transform="translate(0,0)"/>
<path d="M0 0 C0.9861026 -0.00788544 0.9861026 -0.00788544 1.99212646 -0.01593018 C4.1590572 -0.02910349 6.32524966 -0.02040226 8.4921875 -0.01025391 C10.00146627 -0.01227543 11.5107441 -0.01518752 13.02001953 -0.01895142 C16.18075881 -0.02337113 19.34124348 -0.01695531 22.50195312 -0.00292969 C26.55071276 0.01416227 30.59887577 0.00431916 34.64761353 -0.01364708 C37.76347335 -0.02449462 40.87919204 -0.02103418 43.99505615 -0.0132637 C45.48777334 -0.01126436 46.98050341 -0.01371164 48.47320557 -0.02070236 C50.56060665 -0.02833314 52.64704547 -0.01669147 54.734375 0 C55.92144043 0.00238678 57.10850586 0.00477356 58.33154297 0.00723267 C61.72803857 0.43346773 63.13923601 0.7828892 65.3671875 3.38818359 C65.84820557 6.33049011 65.84820557 6.33049011 65.82128906 9.97094727 C65.82187317 10.63462814 65.82245728 11.29830902 65.82305908 11.98210144 C65.82027413 14.17398541 65.78916625 16.36450626 65.7578125 18.55615234 C65.75035149 20.07643389 65.74465789 21.59672505 65.74066162 23.11701965 C65.72539404 27.11708156 65.68610332 31.11656184 65.6418457 35.11639404 C65.60091677 39.19844698 65.58265574 43.28059396 65.5625 47.36279297 C65.51960947 55.37152333 65.45134536 63.3797811 65.3671875 71.38818359 C66.21243484 71.38374237 67.05768219 71.37930115 67.92854309 71.37472534 C75.88903017 71.33467333 83.84948348 71.30421178 91.8100481 71.28455925 C95.90278733 71.27411609 99.9954434 71.25994723 104.08813477 71.23730469 C108.03682461 71.2155952 111.98543439 71.20361898 115.93417931 71.19842911 C117.44169055 71.19472994 118.94919736 71.18750649 120.45667458 71.17672348 C122.56602113 71.16223356 124.67503562 71.16020457 126.78442383 71.16113281 C127.98577469 71.15669159 129.18712555 71.15225037 130.42488098 71.14767456 C133.3671875 71.38818359 133.3671875 71.38818359 136.3671875 73.38818359 C136.74813843 76.42456055 136.74813843 76.42456055 136.75537109 80.37646484 C136.76325653 81.45473038 136.76325653 81.45473038 136.77130127 82.55477905 C136.78453265 84.93696662 136.77575257 87.31848893 136.765625 89.70068359 C136.76764485 91.35213347 136.77055553 93.00358248 136.77432251 94.6550293 C136.7787501 98.11857584 136.77230099 101.58189052 136.75830078 105.04541016 C136.74120848 109.491241 136.75104736 113.93652858 136.76901817 118.38233948 C136.77984439 121.79321405 136.77641507 125.20395924 136.7686348 128.61483765 C136.76662956 130.25434432 136.76910338 131.89386263 136.77607346 133.53335571 C136.78366909 135.82252239 136.77211146 138.11080197 136.75537109 140.39990234 C136.75298431 141.70403076 136.75059753 143.00815918 136.74813843 144.35180664 C136.62242462 145.35381104 136.49671082 146.35581543 136.3671875 147.38818359 C132.74289304 149.8043799 131.09580388 149.63117293 126.78442383 149.61523438 C126.12074295 149.61552643 125.45706207 149.61581848 124.77326965 149.61611938 C122.58178589 149.61472716 120.39064305 149.59917138 118.19921875 149.58349609 C116.67893154 149.57976557 115.15864192 149.57691878 113.63835144 149.57492065 C109.63849236 149.56728725 105.63877871 149.54764134 101.63897705 149.5255127 C97.55686409 149.50504793 93.47472761 149.49591759 89.39257812 149.48583984 C81.38404787 149.46439512 73.37563578 149.43026276 65.3671875 149.38818359 C65.37718025 150.73122307 65.37718025 150.73122307 65.38737488 152.10139465 C65.4474465 160.53278208 65.49314178 168.96409781 65.52262402 177.39564991 C65.53829061 181.73057485 65.55954684 186.06532319 65.59350586 190.40014648 C65.62606414 194.58226447 65.64403303 198.76421244 65.65181923 202.94644737 C65.65736912 204.54328781 65.66820656 206.14011878 65.68437767 207.73688698 C65.70610558 209.97087453 65.70915646 212.20415648 65.70776367 214.43823242 C65.71775642 216.34684807 65.71775642 216.34684807 65.72795105 218.29402161 C65.3671875 221.38818359 65.3671875 221.38818359 64.26582336 223.29829407 C61.38681278 224.95095614 58.95170564 224.76994597 55.6484375 224.77636719 C54.63088379 224.78425262 54.63088379 224.78425262 53.59277344 224.79229736 C51.35067715 224.80549995 49.10929099 224.79675897 46.8671875 224.78662109 C45.3092434 224.78864177 43.75130023 224.79155316 42.19335938 224.7953186 C38.92829381 224.79974228 35.66347445 224.79330968 32.3984375 224.77929688 C28.21167401 224.76220472 24.02548743 224.7720457 19.83874512 224.79001427 C16.62170051 224.80085106 13.40479285 224.7974063 10.18774414 224.78963089 C8.6439609 224.78762858 7.10016525 224.79008926 5.55639648 224.79706955 C3.39924146 224.8046826 1.24302272 224.79308332 -0.9140625 224.77636719 C-2.14189453 224.77398041 -3.36972656 224.77159363 -4.63476562 224.76913452 C-7.6328125 224.38818359 -7.6328125 224.38818359 -9.53144836 223.29829407 C-11.22992057 220.35261112 -10.99107997 217.81727092 -10.97338867 214.43823242 C-10.97404579 213.38418968 -10.97404579 213.38418968 -10.97471619 212.30885315 C-10.97262697 209.98735724 -10.94929069 207.66658451 -10.92578125 205.34521484 C-10.92018574 203.73524877 -10.91591543 202.12527758 -10.91291809 200.51530457 C-10.90146568 196.27863452 -10.87199529 192.0422732 -10.83880615 187.8057251 C-10.80811369 183.48234229 -10.79441453 179.15890958 -10.77929688 174.83544922 C-10.7471258 166.3528857 -10.69592488 157.87057305 -10.6328125 149.38818359 C-11.49058792 149.39262482 -12.34836334 149.39706604 -13.23213196 149.40164185 C-21.31034844 149.44169276 -29.38853164 149.47215486 -37.46682453 149.49180794 C-41.62009728 149.50225139 -45.77328809 149.51642078 -49.92651367 149.5390625 C-53.93355809 149.56077094 -57.94052362 149.57274799 -61.9476223 149.57793808 C-63.47746205 149.58163744 -65.00729742 149.58886125 -66.53710365 149.59964371 C-68.67758183 149.61413222 -70.81773275 149.61616267 -72.95825195 149.61523438 C-74.78692558 149.62189621 -74.78692558 149.62189621 -76.65254211 149.62869263 C-79.6328125 149.38818359 -79.6328125 149.38818359 -82.6328125 147.38818359 C-83.01376343 144.35180664 -83.01376343 144.35180664 -83.02099609 140.39990234 C-83.02625305 139.68105865 -83.03151001 138.96221497 -83.03692627 138.22158813 C-83.05015765 135.83940057 -83.04137757 133.45787825 -83.03125 131.07568359 C-83.03326985 129.42423372 -83.03618053 127.77278471 -83.03994751 126.12133789 C-83.0443751 122.65779134 -83.03792599 119.19447666 -83.02392578 115.73095703 C-83.00683348 111.28512619 -83.01667236 106.83983861 -83.03464317 102.39402771 C-83.04546939 98.98315314 -83.04204007 95.57240795 -83.0342598 92.16152954 C-83.03225456 90.52202287 -83.03472838 88.88250456 -83.04169846 87.24301147 C-83.04929409 84.9538448 -83.03773646 82.66556522 -83.02099609 80.37646484 C-83.01860931 79.07233643 -83.01622253 77.76820801 -83.01376343 76.42456055 C-82.88804962 75.42255615 -82.76233582 74.42055176 -82.6328125 73.38818359 C-78.98899962 70.95897501 -77.29668805 71.14532795 -72.95825195 71.16113281 C-72.2848175 71.16084076 -71.61138306 71.16054871 -70.9175415 71.1602478 C-68.69359411 71.16164015 -66.46998255 71.17719657 -64.24609375 71.19287109 C-62.70338626 71.19660157 -61.1606764 71.19944838 -59.6179657 71.20144653 C-55.55892386 71.2090803 -51.5000253 71.22872653 -47.44104004 71.25085449 C-43.2986037 71.27131847 -39.1561442 71.28044943 -35.01367188 71.29052734 C-26.88665302 71.31197271 -18.75975059 71.34610551 -10.6328125 71.38818359 C-10.64169495 70.54293625 -10.65057739 69.6976889 -10.659729 68.826828 C-10.73983258 60.86638469 -10.8007552 52.90607647 -10.84006119 44.94532299 C-10.86094817 40.85245274 -10.88928536 36.75991512 -10.93457031 32.66723633 C-10.97798956 28.71852151 -11.00194124 24.77012688 -11.01232147 20.82119179 C-11.01972 19.31364207 -11.03416762 17.80611014 -11.05573273 16.29869652 C-11.08471656 14.18905973 -11.0887709 12.08075069 -11.08691406 9.97094727 C-11.09579651 8.76959641 -11.10467896 7.56824554 -11.11383057 6.33049011 C-10.6328125 3.38818359 -10.6328125 3.38818359 -9.01898193 1.50102234 C-5.87928045 0.03675857 -3.46527787 0.00696748 0 0 Z " fill="#DD2023" transform="translate(104.6328125,48.61181640625)"/>
<path d="M0 0 C11.3025 -0.061875 22.605 -0.12375 34.25 -0.1875 C39.56786621 -0.22846802 39.56786621 -0.22846802 44.99316406 -0.27026367 C49.38232422 -0.28381348 49.38232422 -0.28381348 51.44866943 -0.28633118 C52.86650431 -0.29088424 54.28432891 -0.30132143 55.7020874 -0.31672668 C70.80113027 -0.4723342 86.16614531 1.57416391 97.875 12.125 C107.95530388 23.2182756 108.73509267 36.47470145 108.17919922 50.65136719 C107.33731986 61.68526286 102.54159399 70.03423612 94.5 77.3125 C90.67975099 80.41433935 87.04907393 83 82 83 C84.37351179 87.31332079 86.74881579 91.62565111 89.125 95.9375 C89.48126465 96.58416626 89.8375293 97.23083252 90.20458984 97.89709473 C94.17245011 105.09718571 98.15191827 112.29024795 102.1796875 119.45703125 C102.82405762 120.60373291 103.46842773 121.75043457 104.13232422 122.93188477 C105.36376926 125.11967163 106.59712485 127.30638434 107.83251953 129.49194336 C108.38278809 130.4691333 108.93305664 131.44632324 109.5 132.453125 C109.9846875 133.31067383 110.469375 134.16822266 110.96875 135.05175781 C112 137 112 137 112 138 C99.46 138 86.92 138 74 138 C58.86488971 108.83051471 58.86488971 108.83051471 53.0625 97.3125 C52.64436035 96.48911133 52.2262207 95.66572266 51.79541016 94.81738281 C49 89.23618112 49 89.23618112 49 87 C44.38 87 39.76 87 35 87 C35 103.83 35 120.66 35 138 C23.45 138 11.9 138 0 138 C0 92.46 0 46.92 0 0 Z " fill="#03529E" transform="translate(556,53)"/>
<path d="M0 0 C13.86 0 27.72 0 42 0 C43.48628906 4.20492187 44.97257812 8.40984375 46.50390625 12.7421875 C59.86470011 50.54279124 59.86470011 50.54279124 73.3125 88.3125 C73.60940735 89.14377411 73.9063147 89.97504822 74.21221924 90.83151245 C76.91958669 98.41141228 79.63124738 105.98964209 82.3707428 113.55799866 C83.10878798 115.5976681 83.84507904 117.6379618 84.58081055 119.6784668 C85.45314833 122.09548764 86.32930049 124.51113705 87.21020508 126.92504883 C87.58298584 127.95911865 87.9557666 128.99318848 88.33984375 130.05859375 C88.66331787 130.94861084 88.98679199 131.83862793 89.32006836 132.75561523 C90 135 90 135 90 138 C78.45 138 66.9 138 55 138 C53.68 134.2875 52.36 130.575 51 126.75 C50.58234375 125.5856543 50.1646875 124.42130859 49.734375 123.22167969 C49.24710938 121.83577637 49.24710938 121.83577637 48.75 120.421875 C48.24726563 119.00793457 48.24726563 119.00793457 47.734375 117.56542969 C47 115 47 115 47 111 C30.17 111 13.34 111 -4 111 C-4.99 114.63 -5.98 118.26 -7 122 C-8.98 127.28 -10.96 132.56 -13 138 C-24.88 138 -36.76 138 -49 138 C-45.62286273 127.86858818 -45.62286273 127.86858818 -44.21679688 123.86230469 C-43.89724533 122.95095764 -43.57769379 122.0396106 -43.24845886 121.10064697 C-42.90865494 120.13415222 -42.56885101 119.16765747 -42.21875 118.171875 C-41.85272171 117.12948669 -41.48669342 116.08709839 -41.10957336 115.01312256 C-39.90748779 111.59169187 -38.70393628 108.17077988 -37.5 104.75 C-37.08559662 103.57203857 -36.67119324 102.39407715 -36.24423218 101.18041992 C-29.82258024 82.93362635 -23.34347621 64.70798834 -16.8125 46.5 C-16.42562012 45.42117554 -16.03874023 44.34235107 -15.64013672 43.23083496 C-10.46518957 28.80647042 -5.24517201 14.39897729 0 0 Z " fill="#03519D" transform="translate(454,53)"/>
<path d="M0 0 C2.80103782 1.55847217 4.57423809 2.86640354 5.72485352 5.92993164 C6.29883009 8.34021256 6.73180632 10.74121766 7.125 13.1875 C7.28693848 14.08388184 7.44887695 14.98026367 7.61572266 15.90380859 C8.09848874 18.59937192 8.55368877 21.29818667 9 24 C9.45404631 26.70910251 9.91340561 29.41715849 10.375 32.125 C10.48513428 32.78169678 10.59526855 33.43839355 10.70874023 34.11499023 C12.12076536 42.2126761 14.08314079 50.19443719 16.01904297 58.18017578 C16.27443848 59.24993652 16.52983398 60.31969727 16.79296875 61.421875 C17.0252417 62.37674805 17.25751465 63.33162109 17.49682617 64.31542969 C17.98999519 66.94662158 18.09361076 69.33042724 18 72 C19.82374146 71.9685791 19.82374146 71.9685791 21.68432617 71.93652344 C26.20357443 71.86401684 30.72277146 71.81816144 35.24243164 71.78027344 C37.19694673 71.76018226 39.1514019 71.73290411 41.10571289 71.69824219 C43.91828208 71.64961399 46.73005527 71.6270064 49.54296875 71.609375 C50.41398727 71.58872986 51.2850058 71.56808472 52.18241882 71.54681396 C56.29124889 71.54530096 58.46424313 71.67836634 62.05981445 73.83691406 C64 76 64 76 64.5 79 C63.94527897 82.32832617 63.32304446 83.59698002 61 86 C58.69203186 86.5146637 58.69203186 86.5146637 55.94946289 86.53344727 C54.92152115 86.5492836 53.89357941 86.56511993 52.83448792 86.58143616 C51.17038124 86.57399635 51.17038124 86.57399635 49.47265625 86.56640625 C48.33219345 86.57260483 47.19173065 86.57880341 46.01670837 86.58518982 C43.60335139 86.59229803 41.18994547 86.58909665 38.77661133 86.57641602 C35.07997468 86.56256547 31.38587522 86.59659217 27.68945312 86.63476562 C25.34635355 86.63571691 23.00325079 86.63385749 20.66015625 86.62890625 C18.99908592 86.64879356 18.99908592 86.64879356 17.30445862 86.66908264 C9.65109109 86.57605473 9.65109109 86.57605473 6.3371582 83.64404297 C4.80382917 80.61209968 3.90098606 77.87706901 3.125 74.5625 C2.97063477 73.91087891 2.81626953 73.25925781 2.65722656 72.58789062 C-0.21134704 60.13354613 -2.55513171 47.54281124 -5 35 C-5.19338959 35.80686752 -5.19338959 35.80686752 -5.39068604 36.6300354 C-6.73937644 42.24666498 -8.1048507 47.85902473 -9.47998047 53.46923828 C-9.99045162 55.56129602 -10.49668722 57.65439212 -10.99853516 59.74853516 C-11.72217647 62.76490144 -12.46115415 65.77715964 -13.203125 68.7890625 C-13.42309143 69.72054108 -13.64305786 70.65201965 -13.86968994 71.61172485 C-15.1758186 76.84072523 -16.60460413 80.77913358 -20 85 C-23.25126773 86.62563386 -26.82537975 86.1290896 -30.39697266 86.11352539 C-31.69951241 86.11374443 -31.69951241 86.11374443 -33.02836609 86.1139679 C-35.90695672 86.11326961 -38.78548314 86.1054811 -41.6640625 86.09765625 C-43.65660568 86.09579177 -45.64914931 86.09436801 -47.64169312 86.09336853 C-52.89259094 86.08954569 -58.14346122 86.07971737 -63.39434814 86.06866455 C-68.74987414 86.05844543 -74.10540457 86.05386983 -79.4609375 86.04882812 C-89.97397045 86.03809491 -100.48698294 86.02102127 -111 86 C-111.19653168 86.66622375 -111.39306335 87.33244751 -111.59555054 88.01885986 C-111.98983749 89.34612091 -111.98983749 89.34612091 -112.39208984 90.70019531 C-112.65049652 91.57266907 -112.9089032 92.44514282 -113.17514038 93.34405518 C-115.36103293 100.38235585 -118.17927097 107.21615382 -120.86328125 114.07568359 C-122.0316367 117.0813884 -123.17184218 120.09697102 -124.3125 123.11328125 C-125.08197278 125.09688248 -125.85277012 127.0799705 -126.625 129.0625 C-126.97256348 129.99610352 -127.32012695 130.92970703 -127.67822266 131.89160156 C-129.86971562 137.41779761 -131.53828771 140.4224807 -137 143 C-140.6075778 143 -142.2982827 142.58927407 -145.06446838 140.26634216 C-147.21643397 137.74657431 -147.94811773 135.9124597 -148.84350586 132.73852539 C-149.14739731 131.68544693 -149.45128876 130.63236847 -149.76438904 129.54737854 C-150.07803909 128.40897018 -150.39168915 127.27056183 -150.71484375 126.09765625 C-151.05246231 124.91014267 -151.39008087 123.72262909 -151.7379303 122.49913025 C-152.63504393 119.33200353 -153.52016255 116.16183087 -154.40020752 112.9899292 C-155.27769263 109.84212707 -156.17450492 106.69982668 -157.06835938 103.55664062 C-160.63254022 90.94976684 -163.99979833 78.32637027 -166.92114258 65.5546875 C-168.39543832 59.17584566 -170.1931699 52.88548548 -171.984375 46.58984375 C-172.69894423 44.06411637 -173.37374301 41.54740888 -174 39 C-174.66 39 -175.32 39 -176 39 C-176.12988815 39.71341553 -176.25977631 40.42683105 -176.39360046 41.16186523 C-176.99878423 43.99430983 -177.79590251 46.66009963 -178.70239258 49.41015625 C-179.04977982 50.46895996 -179.39716705 51.52776367 -179.75508118 52.61865234 C-180.1310997 53.75512207 -180.50711823 54.8915918 -180.89453125 56.0625 C-181.28315842 57.24537598 -181.67178558 58.42825195 -182.07218933 59.64697266 C-183.10598527 62.79248095 -184.14212667 65.93719482 -185.17962646 69.08148193 C-186.62924393 73.47591011 -188.07549112 77.87144628 -189.52067566 82.26733398 C-190.28839655 84.60194646 -191.05744335 86.93612351 -191.82807922 89.26977539 C-192.18492294 90.35379639 -192.54176666 91.43781738 -192.90942383 92.5546875 C-193.25816559 93.61139648 -193.60690735 94.66810547 -193.96621704 95.75683594 C-194.68281698 98.00493953 -195.36373478 100.26460962 -196.01596069 102.53222656 C-196.51212387 104.2526416 -196.51212387 104.2526416 -197.01831055 106.0078125 C-197.30441696 107.03793457 -197.59052338 108.06805664 -197.88529968 109.12939453 C-199.38597862 112.99398226 -201.50478171 115.86569647 -204.8125 118.375 C-208.17672152 119.33620615 -210.62702719 118.82844946 -214 118 C-218.05335222 115.26036219 -220.16559284 112.48158862 -222.48828125 108.2109375 C-223.11283203 107.10492188 -223.73738281 105.99890625 -224.38085938 104.859375 C-225.6691958 102.53541931 -226.94526169 100.20461895 -228.20898438 97.8671875 C-228.83740234 96.76375 -229.46582031 95.6603125 -230.11328125 94.5234375 C-230.66798096 93.51200684 -231.22268066 92.50057617 -231.79418945 91.45849609 C-235.32857307 87.51923289 -239.39972199 87.18800619 -244.4261322 86.82458496 C-247.12591161 86.72373727 -249.81791597 86.69759891 -252.51953125 86.69140625 C-254.53060222 86.66627548 -256.54166987 86.64087709 -258.55273438 86.61523438 C-261.69750299 86.58636971 -264.84221432 86.56232404 -267.98706055 86.54370117 C-271.03982857 86.52212768 -274.09197629 86.48273215 -277.14453125 86.44140625 C-278.56014091 86.44123253 -278.56014091 86.44123253 -280.00434875 86.4410553 C-280.87923447 86.42771652 -281.75412018 86.41437775 -282.65551758 86.40063477 C-283.42414627 86.39556412 -284.19277496 86.39049347 -284.98469543 86.38526917 C-287.52699609 85.89925327 -288.4200484 85.01192289 -290 83 C-290.3984375 81.0625 -290.3984375 81.0625 -290.375 79 C-290.38273438 78.319375 -290.39046875 77.63875 -290.3984375 76.9375 C-289.86996633 74.3676794 -289.06847733 73.60202335 -287 72 C-284.55363464 71.61904907 -284.55363464 71.61904907 -281.61401367 71.61181641 C-279.96165962 71.59763168 -279.96165962 71.59763168 -278.27592468 71.5831604 C-277.08529922 71.58923309 -275.89467377 71.59530579 -274.66796875 71.6015625 C-273.44346512 71.59869232 -272.21896149 71.59582214 -270.95735168 71.59286499 C-268.36405984 71.59082161 -265.77075268 71.59637051 -263.17749023 71.60888672 C-259.21367709 71.62489429 -255.2508901 71.60906746 -251.28710938 71.58984375 C-248.76822692 71.59182694 -246.2493451 71.59567218 -243.73046875 71.6015625 C-242.54591599 71.59548981 -241.36136322 71.58941711 -240.14091492 71.5831604 C-229.8313461 71.67091016 -229.8313461 71.67091016 -225 75 C-223.34765625 76.83984375 -223.34765625 76.83984375 -222.0625 78.9375 C-221.57394531 79.71996094 -221.08539063 80.50242187 -220.58203125 81.30859375 C-218.18778773 85.38176359 -215.82605513 89.47244221 -213.515625 93.59375 C-212.22530553 96.10337435 -212.22530553 96.10337435 -210 97 C-209.87579178 96.30773819 -209.75158356 95.61547638 -209.62361145 94.90223694 C-208.93807616 91.71181151 -208.01363971 88.67347631 -207.0222168 85.56420898 C-206.82367096 84.93901871 -206.62512512 84.31382843 -206.42056274 83.66969299 C-205.76603521 81.61099271 -205.10768183 79.55353832 -204.44921875 77.49609375 C-203.98919395 76.05231851 -203.52938408 74.60847477 -203.06977844 73.16456604 C-202.10552032 70.13710193 -201.13951927 67.11020178 -200.17211914 64.08374023 C-198.94267044 60.23741746 -197.71619841 56.39015459 -196.49089336 52.54251003 C-195.31139914 48.83919851 -194.13035196 45.13638279 -192.94921875 41.43359375 C-192.72886145 40.74233335 -192.50850414 40.05107296 -192.28146935 39.33886528 C-191.24428693 36.08679039 -190.20293456 32.83621237 -189.15487671 29.58761597 C-188.39406744 27.2241676 -187.64285911 24.85760378 -186.90200806 22.48782349 C-186.56027557 21.41555511 -186.21854309 20.34328674 -185.86645508 19.23852539 C-185.57249344 18.30174454 -185.2785318 17.36496368 -184.97566223 16.39979553 C-183.3747889 12.46219443 -181.72792969 11.0467065 -178 9 C-174.25865845 8.47489943 -171.86348829 8.69878316 -168.3125 9.9375 C-161.66357911 15.86761864 -160.37193869 26.66699947 -158.390625 34.9296875 C-158.05770082 36.28726357 -157.72383747 37.64460962 -157.38909912 39.0017395 C-156.33334797 43.29056016 -155.29123379 47.58263605 -154.25 51.875 C-152.8887841 57.47868286 -151.51996453 63.0804374 -150.140625 68.6796875 C-149.97230667 69.36488213 -149.80398834 70.05007675 -149.63056946 70.75603485 C-146.89469158 81.85647062 -143.8144288 92.8133084 -140.42486572 103.7338562 C-140.10644714 104.76801666 -139.78802856 105.80217712 -139.45996094 106.86767578 C-139.17731384 107.76704865 -138.89466675 108.66642151 -138.60345459 109.5930481 C-138 112 -138 112 -138 116 C-137.34 116 -136.68 116 -136 116 C-135.81775879 114.47838257 -135.81775879 114.47838257 -135.63183594 112.92602539 C-134.7113091 107.20616757 -132.80825375 101.87002962 -130.92675781 96.41137695 C-130.25204295 94.44345862 -129.59838899 92.46932874 -128.9453125 90.49414062 C-124.09867553 76.14530517 -124.09867553 76.14530517 -117.86213684 72.88101196 C-114.13769214 71.73456771 -110.5809153 71.69201534 -106.72143555 71.68115234 C-105.49139046 71.66608391 -105.49139046 71.66608391 -104.23649597 71.65071106 C-101.5365771 71.61991681 -98.83675723 71.60285441 -96.13671875 71.5859375 C-94.26055553 71.56722283 -92.38440069 71.54764919 -90.508255 71.5272522 C-85.5780431 71.47595664 -80.64780392 71.43631709 -75.71746826 71.39910889 C-70.68332179 71.35905313 -65.64928856 71.30796794 -60.61523438 71.2578125 C-50.74356916 71.16108369 -40.87183997 71.07666911 -31 71 C-27.03186985 57.59245337 -23.15479176 44.18742051 -19.75 30.625 C-13.38650101 5.38650101 -13.38650101 5.38650101 -9 1 C-5.89951072 -0.55024464 -3.42105782 -0.28992015 0 0 Z " fill="#EA5F24" transform="translate(488,201)"/>
<path d="M0 0 C13.42556994 9.07798212 19.61839957 23.78279807 23 39 C11.12 39 -0.76 39 -13 39 C-14.65 35.7 -16.3 32.4 -18 29 C-24.21280863 22.55274576 -29.98475513 19.91470189 -38.9375 19.5625 C-44.75590875 19.72371536 -49.00732153 21.07957225 -54 24 C-54.62648438 24.33902344 -55.25296875 24.67804688 -55.8984375 25.02734375 C-61.41496872 28.41194041 -64.19810576 33.29124141 -67 39 C-67.62455078 40.25876953 -67.62455078 40.25876953 -68.26171875 41.54296875 C-73.38152738 53.99218762 -72.95315737 70.81246792 -68.25390625 83.37109375 C-64.01159572 92.26540834 -57.77246153 97.60388389 -48.6875 101.375 C-39.34705793 102.95812578 -30.25958467 102.87498099 -22.03125 97.78125 C-16.67129445 93.69314831 -15.97603292 90.69607407 -13 84 C-0.79 84 11.42 84 24 84 C18.48448773 101.92541487 9.84014918 116.53406711 -7.0703125 125.65625 C-17.62961609 130.7486801 -27.50302648 133.56356411 -39.25 133.4375 C-40.25071533 133.42992676 -41.25143066 133.42235352 -42.2824707 133.41455078 C-61.57856726 132.98909569 -78.16055436 125.29877724 -91.625 111.5 C-104.87564639 95.39874174 -108.61195834 74.28594129 -107 54 C-104.95533636 33.85963177 -97.57164673 16.41592539 -82 3 C-74.04924965 -3.22707623 -65.59218026 -6.23982447 -56 -9 C-55.39196533 -9.17958252 -54.78393066 -9.35916504 -54.1574707 -9.54418945 C-35.79681263 -13.42326025 -15.64021056 -10.13669948 0 0 Z " fill="#02519D" transform="translate(378,60)"/>
<path d="M0 0 C29.04 0 58.08 0 88 0 C88 9.24 88 18.48 88 28 C70.18 28 52.36 28 34 28 C34 36.25 34 44.5 34 53 C50.17 53 66.34 53 83 53 C83 62.57 83 72.14 83 82 C67.16 82 51.32 82 35 82 C35 90.91 35 99.82 35 109 C53.48 109 71.96 109 91 109 C91 118.57 91 128.14 91 138 C60.97 138 30.94 138 0 138 C0 92.46 0 46.92 0 0 Z " fill="#05529E" transform="translate(684,53)"/>
<path d="M0 0 C7.59 0 15.18 0 23 0 C23.33 22.11 23.66 44.22 24 67 C31.36607929 58.90817754 31.36607929 58.90817754 38.4375 50.5625 C39.19160156 49.67046875 39.94570313 48.7784375 40.72265625 47.859375 C43.09077366 45.00581353 43.09077366 45.00581353 45.05859375 41.640625 C47.53991678 37.90184547 49.82866123 34.88552242 54 33 C62.89697195 31.52248946 72.05448779 32.26062313 81 33 C77.59637436 37.65372944 74.13716469 42.10083434 70.1875 46.3125 C65.99661302 50.85524556 62.05112712 55.53283418 58.1875 60.35546875 C55.39423567 63.7323258 52.3956728 66.89140815 49.3359375 70.02734375 C47.7709012 71.86895955 47.7709012 71.86895955 48.24536133 73.88793945 C49.09432659 76.2639985 50.16376249 77.79691126 51.73828125 79.765625 C52.58918335 80.84215332 52.58918335 80.84215332 53.45727539 81.94042969 C54.06949951 82.70258789 54.68172363 83.46474609 55.3125 84.25 C56.5897919 85.86359446 57.86580887 87.47819886 59.140625 89.09375 C59.78580078 89.90972656 60.43097656 90.72570312 61.09570312 91.56640625 C64.47523212 95.885271 67.74064114 100.28874617 71.00317383 104.69628906 C73.88546766 108.57344741 76.87476959 112.31527988 80 116 C79.67 116.66 79.34 117.32 79 118 C56.6350058 119.92142452 56.6350058 119.92142452 49.55664062 115.45996094 C45.36482609 111.42090932 42.45505384 106.55898124 39.55029297 101.55126953 C36.93914122 97.25417728 33.79524268 93.38184463 30.6875 89.4375 C29.60591535 88.02117629 28.52628941 86.60335324 27.44921875 85.18359375 C25.81773301 83.00979833 25.81773301 83.00979833 24 81 C24 93.21 24 105.42 24 118 C16.08 118 8.16 118 0 118 C0 79.06 0 40.12 0 0 Z " fill="#0A8943" transform="translate(755,213)"/>
<path d="M0 0 C6.79872322 5.66560268 10.49954916 11.76036624 13.2734375 20.08203125 C13.36208926 21.99921973 13.39105507 23.91939038 13.38696289 25.83862305 C13.38684959 27.61011971 13.38684959 27.61011971 13.38673401 29.41740417 C13.38157272 30.6924733 13.37641144 31.96754242 13.37109375 33.28125 C13.3696788 34.58657181 13.36826385 35.89189362 13.36680603 37.23677063 C13.3629913 40.70392781 13.35316994 44.17104299 13.34210205 47.63818359 C13.33186548 51.17740307 13.3273036 54.71662935 13.32226562 58.25585938 C13.31154673 65.19793565 13.29395837 72.1399771 13.2734375 79.08203125 C5.6834375 79.08203125 -1.9065625 79.08203125 -9.7265625 79.08203125 C-9.75234375 75.40949219 -9.778125 71.73695313 -9.8046875 67.953125 C-9.84313057 64.38525824 -9.88828377 60.81753489 -9.93408203 57.24975586 C-9.96225882 54.77554197 -9.98348965 52.30123862 -9.99755859 49.8269043 C-10.01903272 46.26434638 -10.06570925 42.70286042 -10.1171875 39.140625 C-10.11841614 38.03931747 -10.11964478 36.93800995 -10.12091064 35.80332947 C-10.24317812 29.35128466 -10.88061503 25.32839563 -14.7265625 20.08203125 C-19.71378613 15.45972642 -23.63303235 14.77525756 -30.2265625 14.87109375 C-35.24197092 15.29426884 -38.31542536 17.40049111 -41.5390625 21.08203125 C-44.38494897 24.98496126 -44.85371031 27.5862064 -44.93188477 32.2878418 C-44.95182999 33.34871506 -44.97177521 34.40958832 -44.99232483 35.50260925 C-45.00903732 36.6464357 -45.02574982 37.79026215 -45.04296875 38.96875 C-45.06374985 40.14089554 -45.08453094 41.31304108 -45.10594177 42.52070618 C-45.17140068 46.27025411 -45.23030546 50.01987288 -45.2890625 53.76953125 C-45.33225118 56.30925216 -45.37586558 58.84896587 -45.41992188 61.38867188 C-45.52788054 67.61972007 -45.62698178 73.85082094 -45.7265625 80.08203125 C-53.6465625 80.08203125 -61.5665625 80.08203125 -69.7265625 80.08203125 C-69.7265625 52.03203125 -69.7265625 23.98203125 -69.7265625 -4.91796875 C-61.8065625 -4.91796875 -53.8865625 -4.91796875 -45.7265625 -4.91796875 C-45.3965625 -2.60796875 -45.0665625 -0.29796875 -44.7265625 2.08203125 C-44.08589844 1.67210937 -43.44523438 1.2621875 -42.78515625 0.83984375 C-29.37432785 -7.51444279 -13.53591313 -9.52168101 0 0 Z " fill="#0A8944" transform="translate(722.7265625,250.91796875)"/>
<path d="M0 0 C7.59 0 15.18 0 23 0 C23 38.61 23 77.22 23 117 C15.41 117 7.82 117 0 117 C0 78.39 0 39.78 0 0 Z " fill="#098842" transform="translate(568,213)"/>
<path d="M0 0 C7.92 0 15.84 0 24 0 C24 28.05 24 56.1 24 85 C16.08 85 8.16 85 0 85 C0 56.95 0 28.9 0 0 Z " fill="#0A8B46" transform="translate(610,246)"/>
<path d="M0 0 C4.455 -0.061875 8.91 -0.12375 13.5 -0.1875 C14.88896484 -0.21481201 16.27792969 -0.24212402 17.70898438 -0.27026367 C26.04502634 -0.32618201 32.36693047 -0.09197407 38.9375 5.5 C41.96279475 9.16702394 42.29711827 12.18205424 42.2109375 16.87890625 C41.70340575 21.98241993 39.75790105 25.24209895 36.1875 28.8125 C31.0658748 32.32734082 26.66646433 33.25396633 20.5078125 33.1953125 C19.4264502 33.19031738 18.34508789 33.18532227 17.23095703 33.18017578 C15.87599121 33.16196777 14.52102539 33.14375977 13.125 33.125 C8.79375 33.08375 4.4625 33.0425 0 33 C0 22.11 0 11.22 0 0 Z " fill="#F7F8F7" transform="translate(590,81)"/>
<path d="M0 0 C0.66 0 1.32 0 2 0 C3.99763435 6.65576071 5.99103176 13.31277948 7.98144531 19.97070312 C8.65949852 22.23694806 9.33853225 24.50289987 10.01855469 26.76855469 C10.99409918 30.0194216 11.96614795 33.27131581 12.9375 36.5234375 C13.24373291 37.54118256 13.54996582 38.55892761 13.86547852 39.60751343 C14.14576904 40.54833771 14.42605957 41.48916199 14.71484375 42.45849609 C14.96355225 43.28900482 15.21226074 44.11951355 15.46850586 44.97518921 C16 47 16 47 16 49 C6.1 49 -3.8 49 -14 49 C-12.65749117 42.28745587 -11.21916425 35.9743824 -9.1796875 29.4921875 C-8.91616486 28.64069122 -8.65264221 27.78919495 -8.38113403 26.91189575 C-7.55042477 24.23145374 -6.71284855 21.55321791 -5.875 18.875 C-5.30553103 17.04180905 -4.73651658 15.20847684 -4.16796875 13.375 C-2.78388643 8.91501904 -1.39364761 4.45700082 0 0 Z " fill="#F4F7F7" transform="translate(474,89)"/>
<path d="M0 0 C3.91075925 1.98968453 5.57689098 3.36533646 8 7 C8.65868019 12.37666855 8.93047242 17.3384421 6.25 22.125 C1.52770467 26.06024611 -2.26238687 26.44140241 -8.3046875 26.3125 C-12.15402532 25.86619996 -14.20574624 24.65454107 -17 22 C-20.13201418 17.65559324 -20.3717532 14.24126524 -19.578125 9.1171875 C-18.53796693 5.30795998 -16.52811985 2.93808659 -13.19921875 0.89453125 C-8.96342283 -0.82837686 -4.48074831 -0.53820855 0 0 Z " fill="#0A8841" transform="translate(628,208)"/>
<path d="M0 0 C21.45 0 42.9 0 65 0 C65 0.33 65 0.66 65 1 C44.21 1 23.42 1 2 1 C2 45.55 2 90.1 2 136 C12.23 136 22.46 136 33 136 C33 119.83 33 103.66 33 87 C33.33 87 33.66 87 34 87 C34.33 103.83 34.66 120.66 35 138 C23.45 138 11.9 138 0 138 C0 92.46 0 46.92 0 0 Z " fill="#0A3C93" transform="translate(556,53)"/>
<path d="M0 0 C7.92 0 15.84 0 24 0 C24 0.66 24 1.32 24 2 C16.74 2 9.48 2 2 2 C2 28.73 2 55.46 2 83 C9.26 83 16.52 83 24 83 C24 83.66 24 84.32 24 85 C16.08 85 8.16 85 0 85 C0 56.95 0 28.9 0 0 Z " fill="#1F883E" transform="translate(610,246)"/>
<path d="M0 0 C0.33 0 0.66 0 1 0 C1.88801934 25.67462298 2.11724143 51.31110075 2 77 C7.94 77 13.88 77 20 77 C20 65.45 20 53.9 20 42 C20.33 42 20.66 42 21 42 C21 53.88 21 65.76 21 78 C11.0625 77.9375 11.0625 77.9375 7.92602539 77.90991211 C7.11641357 77.90741455 6.30680176 77.90491699 5.47265625 77.90234375 C4.64000244 77.89710693 3.80734863 77.89187012 2.94946289 77.88647461 C0.99483202 77.78356708 0.99483202 77.78356708 0 79 C7.59 79 15.18 79 23 79 C23 79.33 23 79.66 23 80 C15.08 80 7.16 80 -1 80 C-1.10007758 53.31264653 -1.12511191 26.66754601 0 0 Z " fill="#18914F" transform="translate(756,251)"/>
<path d="M0 0 C3.29308586 2.94976414 4.96911537 5.60120406 6.625 9.6875 C7.02976562 10.66074219 7.43453125 11.63398437 7.8515625 12.63671875 C9.22577216 16.6611899 10.07747609 20.84864241 11 25 C-0.88 25 -12.76 25 -25 25 C-25.99 22.03 -26.98 19.06 -28 16 C-25 19 -25 19 -24 24 C-13.11 24 -2.22 24 9 24 C6.5188043 16.5564129 4.5529708 10.66185529 0.953125 3.9609375 C0 2 0 2 0 0 Z " fill="#031E83" transform="translate(390,74)"/>
<path d="M0 0 C7.92 0 15.84 0 24 0 C23.67 2.64 23.34 5.28 23 8 C22.67 8 22.34 8 22 8 C22 6.02 22 4.04 22 2 C15.4 2 8.8 2 2 2 C2 10.91 2 19.82 2 29 C1.67 29 1.34 29 1 29 C0.67 19.43 0.34 9.86 0 0 Z " fill="#077B2B" transform="translate(653,246)"/>
<path d="M0 0 C0.66 0.33 1.32 0.66 2 1 C2.495 3.97 2.495 3.97 3 7 C-8.55 7 -20.1 7 -32 7 C-32 6.34 -32 5.68 -32 5 C-21.11 5 -10.22 5 1 5 C0.505 2.525 0.505 2.525 0 0 Z " fill="#21509B" transform="translate(541,184)"/>
<path d="M0 0 C1.81274414 0.01450195 1.81274414 0.01450195 3.66210938 0.02929688 C5.55606445 0.06700195 5.55606445 0.06700195 7.48828125 0.10546875 C9.39963867 0.12577148 9.39963867 0.12577148 11.34960938 0.14648438 C14.50042182 0.18188676 17.6503917 0.23127085 20.80078125 0.29296875 C19.48078125 1.61296875 18.16078125 2.93296875 16.80078125 4.29296875 C16.80078125 3.63296875 16.80078125 2.97296875 16.80078125 2.29296875 C16.11975342 2.32326172 15.43872559 2.35355469 14.73706055 2.38476562 C11.65416389 2.52151443 8.57122356 2.65725326 5.48828125 2.79296875 C4.41642578 2.84066406 3.34457031 2.88835937 2.24023438 2.9375 C0.69819336 3.00517578 0.69819336 3.00517578 -0.875 3.07421875 C-2.29679565 3.13706055 -2.29679565 3.13706055 -3.74731445 3.20117188 C-5.56360099 3.26917185 -7.38165973 3.29296875 -9.19921875 3.29296875 C-6.54997804 -0.23528271 -4.24924253 -0.05984849 0 0 Z " fill="#047B2E" transform="translate(815.19921875,245.70703125)"/>
<path d="M0 0 C0 4.34583931 -2.22005146 6.05802555 -5.04296875 9.19140625 C-7.49350148 11.45607023 -9.74043549 12.36398741 -13 13 C-9.0580583 8.11950075 -4.88049925 3.9419417 0 0 Z " fill="#04398F" transform="translate(299,61)"/>
<path d="M0 0 C3.38084321 3.00599492 5.01406561 5.75127454 6.6875 9.9375 C7.10386719 10.95714844 7.52023437 11.97679688 7.94921875 13.02734375 C8.89161121 15.69336851 9.53351981 18.21649732 10 21 C9.34 21 8.68 21 8 21 C7.76216797 20.19949219 7.76216797 20.19949219 7.51953125 19.3828125 C5.82541377 13.97286829 3.64459952 9.07344864 0.98828125 4.06640625 C0 2 0 2 0 0 Z " fill="#0D358D" transform="translate(390,74)"/>
<path d="M0 0 C0.66 0.33 1.32 0.66 2 1 C0 6 -2 11 -4 16 C-5.16161779 13.13421241 -4.9946154 11.98369837 -4.00390625 8.984375 C-3.52824219 7.91703125 -3.05257813 6.8496875 -2.5625 5.75 C-2.08941406 4.67234375 -1.61632812 3.5946875 -1.12890625 2.484375 C-0.75636719 1.66453125 -0.38382812 0.8446875 0 0 Z " fill="#0B368E" transform="translate(447,74)"/>
<path d="M0 0 C1.90389849 2.85584773 2.69462177 4.9311762 3.625 8.1875 C4.01558594 9.53908203 4.01558594 9.53908203 4.4140625 10.91796875 C4.60742188 11.60503906 4.80078125 12.29210937 5 13 C3.68 13 2.36 13 1 13 C0.67 8.71 0.34 4.42 0 0 Z " fill="#EAF1F4" transform="translate(500,165)"/>
<path d="M0 0 C4.29 0 8.58 0 13 0 C13 0.33 13 0.66 13 1 C8.15758367 2.33583899 4.06562383 3.25328119 -1 3 C-0.67 2.01 -0.34 1.02 0 0 Z " fill="#115BA3" transform="translate(328,190)"/>
<path d="M0 0 C0.66 0.99 1.32 1.98 2 3 C0.35 4.32 -1.3 5.64 -3 7 C-3 3 -3 3 -1.5 1.25 C-1.005 0.8375 -0.51 0.425 0 0 Z " fill="#057D31" transform="translate(784,275)"/>
<path d="M0 0 C0.66 0.33 1.32 0.66 2 1 C2 1.66 2 2.32 2 3 C1.34 3 0.68 3 0 3 C-0.12375 3.78375 -0.2475 4.5675 -0.375 5.375 C-1 8 -1 8 -3 10 C-2.69201674 8.51988629 -2.378482 7.04092675 -2.0625 5.5625 C-1.88847656 4.73878906 -1.71445312 3.91507812 -1.53515625 3.06640625 C-1 1 -1 1 0 0 Z " fill="#0B358D" transform="translate(432,116)"/>
</svg>
